# xmcd
#
# Track frame offsets: 
#        150
#        3996
#        19130
#        34728
#        50378
#        68719
#        84577
#        103285
#        124971
#        137930
#        153095
#        174036
#        191553
#        206050
#        217902
#        231643
#        244099
#        263095
#        277121
#        291266
#        301089
#        316157
#        325953
#
# Disc length: 4694 seconds
#
# Revision: 2
# Processed by: cddbd v1.5.2PL0 Copyright (c) Steve Scherf et al.
# Submitted via: ExactAudioCopyFreeDBPlugin 1.0
#
DISCID=4b125417
DTITLE=Various Artist - Daptone Gold
DYEAR=2009
DGENRE=Soul
TTITLE0=Binky Griptite - Introduction
TTITLE1=Sharon Jones and The Dap-Kings - I'm Not Gonna Cry
TTITLE2=The Budos Band - Up From the South
TTITLE3=Naomi Shelton and The Gospel Queens - What Have You Done?
TTITLE4=Sharon Jones and The Dap-Kings - How Long Do I Have to Wait?
TTITLE5=Lee Fields - Could Have Been
TTITLE6=Antibalas - Che Che Cole Makossa
TTITLE7=The Budos Band - Budos Rising
TTITLE8=Sharon Jones and The Dap-Kings - Got a Thing on My Mind
TTITLE9=Charles Bradley and Menahan Street Band - The World (Is Going Up
TTITLE9=in Flames)
TTITLE10=Sharon Jones and The Dap-Kings - Make It Good to Me
TTITLE11=Lee Fields And Sugarman and Co. - Stand Up
TTITLE12=Naomi Shelton and The Gospel Queens - What Is This
TTITLE13=Binky Griptite and The Sugarman Three - A Lover Like Me
TTITLE14=Menahan Street Band - Make the Road By Walking
TTITLE15=Sharon Jones and The Dap-Kings - Tell Me
TTITLE16=Sugarman and Co. - Down to It
TTITLE17=The Dap-Kings - Nervous Like Me
TTITLE18=Sharon Jones and The Dap-Kings - Giving Up
TTITLE19=The Budos Band - Ghostwalk
TTITLE20=Cynthia Langston and The Gospel Queens - I Need You to Hold My 
TTITLE20=Hand
TTITLE21=Binky Griptite and The Mellomatics - The Stroll Part 2
TTITLE22=Sharon Jones and Lee Fields - Stranded in Your Love
EXTD=
EXTT0=
EXTT1=
EXTT2=
EXTT3=
EXTT4=
EXTT5=
EXTT6=
EXTT7=
EXTT8=
EXTT9=
EXTT10=
EXTT11=
EXTT12=
EXTT13=
EXTT14=
EXTT15=
EXTT16=
EXTT17=
EXTT18=
EXTT19=
EXTT20=
EXTT21=
EXTT22=
PLAYORDER=
